<?xml version="1.0" encoding="UTF-8" standalone="no"?>
<!DOCTYPE svg PUBLIC "-//W3C//DTD SVG 1.0//EN" "http://www.w3.org/TR/2001/PR-SVG-20010719/DTD/svg10.dtd">
<svg width="6cm" height="23cm" viewBox="98 18 103 443" xmlns="http://www.w3.org/2000/svg" xmlns:xlink="http://www.w3.org/1999/xlink">
  <g>
    <rect style="fill: #ffffff" x="100" y="20" width="100" height="40"/>
    <rect style="fill: none; fill-opacity:0; stroke-width: 2; stroke: #000000" x="100" y="20" width="100" height="40"/>
    <text font-size="13.5465" style="fill: #000000;text-anchor:middle;font-family:sans-serif;font-style:normal;font-weight:normal" x="150" y="45.6833">
      <tspan x="150" y="45.6833">x := attack</tspan>
    </text>
  </g>
  <g>
    <rect style="fill: #ffffff" x="100" y="100" width="100" height="40"/>
    <rect style="fill: none; fill-opacity:0; stroke-width: 2; stroke: #000000" x="100" y="100" width="100" height="40"/>
    <text font-size="13.5465" style="fill: #000000;text-anchor:middle;font-family:sans-serif;font-style:normal;font-weight:normal" x="150" y="125.683">
      <tspan x="150" y="125.683">x := kx + b</tspan>
    </text>
  </g>
  <g>
    <rect style="fill: #ffffff" x="100" y="180" width="100" height="40"/>
    <rect style="fill: none; fill-opacity:0; stroke-width: 2; stroke: #000000" x="100" y="180" width="100" height="40"/>
    <text font-size="13.5465" style="fill: #000000;text-anchor:middle;font-family:sans-serif;font-style:normal;font-weight:normal" x="150" y="205.683">
      <tspan x="150" y="205.683">x := kx + b</tspan>
    </text>
  </g>
  <g>
    <rect style="fill: #ffffff" x="100" y="340" width="100" height="40"/>
    <rect style="fill: none; fill-opacity:0; stroke-width: 2; stroke: #000000" x="100" y="340" width="100" height="40"/>
    <text font-size="13.5465" style="fill: #000000;text-anchor:middle;font-family:sans-serif;font-style:normal;font-weight:normal" x="150" y="365.683">
      <tspan x="150" y="365.683">damage := x</tspan>
    </text>
  </g>
  <g>
    <rect style="fill: #ffffff" x="100" y="420" width="100" height="40"/>
    <rect style="fill: none; fill-opacity:0; stroke-width: 2; stroke: #000000" x="100" y="420" width="100" height="40"/>
    <text font-size="13.5465" style="fill: #000000;text-anchor:middle;font-family:sans-serif;font-style:normal;font-weight:normal" x="150" y="445.683">
      <tspan x="150" y="445.683">hp - damage</tspan>
    </text>
  </g>
  <g>
    <line style="fill: none; fill-opacity:0; stroke-width: 2; stroke: #000000" x1="150" y1="60" x2="150" y2="95.5279"/>
    <polyline style="fill: none; fill-opacity:0; stroke-width: 2; stroke: #000000" points="145,87.7639 150,97.7639 155,87.7639 "/>
  </g>
  <g>
    <line style="fill: none; fill-opacity:0; stroke-width: 2; stroke: #000000" x1="150" y1="140" x2="150" y2="175.528"/>
    <polyline style="fill: none; fill-opacity:0; stroke-width: 2; stroke: #000000" points="145,167.764 150,177.764 155,167.764 "/>
  </g>
  <g>
    <line style="fill: none; fill-opacity:0; stroke-width: 2; stroke-dasharray: 4; stroke: #000000" x1="150" y1="220" x2="150" y2="335.528"/>
    <polyline style="fill: none; fill-opacity:0; stroke-width: 2; stroke: #000000" points="145,327.764 150,337.764 155,327.764 "/>
  </g>
  <g>
    <line style="fill: none; fill-opacity:0; stroke-width: 2; stroke: #000000" x1="150" y1="380" x2="150" y2="415.528"/>
    <polyline style="fill: none; fill-opacity:0; stroke-width: 2; stroke: #000000" points="145,407.764 150,417.764 155,407.764 "/>
  </g>
</svg>
